<?xml version="1.0" standalone="no"?>
<!DOCTYPE svg PUBLIC "-//W3C//DTD SVG 20010904//EN"
 "http://www.w3.org/TR/2001/REC-SVG-20010904/DTD/svg10.dtd">
<svg version="1.0" xmlns="http://www.w3.org/2000/svg"
 width="256.000000pt" height="256.000000pt" viewBox="0 0 256.000000 256.000000"
 preserveAspectRatio="xMidYMid meet">
<metadata>
Created by potrace 1.14, written by Peter Selinger 2001-2017
</metadata>
<g transform="translate(0.000000,256.000000) scale(0.100000,-0.100000)"
fill="#000000" stroke="none">
<path d="M0 1280 l0 -1280 150 0 151 0 -2 145 c-1 80 1 148 4 151 2 3 20 -6
39 -18 32 -22 117 -53 216 -78 l43 -11 -7 -95 -7 -94 697 0 696 0 1 43 c4 114
-5 101 79 108 80 7 145 26 222 65 26 13 51 24 56 24 4 0 6 -54 4 -120 l-4
-120 111 0 111 0 0 1280 0 1280 -1280 0 -1280 0 0 -1280z m1285 900 c-3 -5
-18 -10 -33 -9 l-27 1 25 8 c35 11 42 11 35 0z m-74 -31 c5 -8 19 -9 45 -4
102 21 201 5 205 -32 2 -22 4 -27 34 -86 24 -49 27 -62 17 -78 -10 -15 -10
-23 0 -38 10 -16 9 -23 -4 -38 -8 -10 -13 -24 -11 -30 3 -9 -9 -13 -43 -13
-49 0 -52 15 -4 22 28 3 34 21 8 26 -26 5 -93 -16 -118 -38 -22 -19 -32 -64
-22 -102 7 -28 22 -21 22 11 0 25 5 29 33 34 30 5 102 2 157 -6 23 -4 25 -8
24 -56 -1 -29 -8 -60 -16 -69 -26 -32 -49 -93 -40 -108 17 -31 -10 -93 -58
-133 -106 -89 -205 -114 -275 -71 -18 11 -38 20 -45 20 -6 0 -26 10 -42 22
-28 20 -30 20 -20 2 24 -45 207 -184 242 -184 7 0 18 -7 25 -16 9 -14 17 -15
41 -7 16 6 28 16 27 22 -2 6 1 11 6 11 6 0 24 20 42 45 18 25 39 45 46 45 8 0
18 10 23 23 5 13 9 16 10 7 0 -13 1 -13 10 0 8 13 10 13 10 -2 0 -9 3 -25 6
-35 5 -15 4 -16 -6 -3 -10 12 -11 12 -4 -5 4 -11 7 -30 7 -42 -1 -13 3 -20 8
-17 5 3 9 -12 9 -33 1 -37 1 -37 14 -14 10 18 14 20 19 9 9 -25 -28 -91 -77
-136 -72 -66 -125 -86 -226 -86 -151 0 -244 63 -274 187 -6 27 7 65 27 78 13
9 -12 186 -33 229 -9 19 -23 56 -30 82 -7 26 -16 45 -20 43 -19 -12 -50 32
-56 77 -8 55 3 138 17 138 6 0 8 -10 5 -22 -3 -13 -3 -17 0 -10 3 6 9 10 14 7
4 -2 10 14 14 38 4 23 9 57 12 75 5 24 3 32 -8 32 -36 0 15 147 66 189 9 7 16
19 16 26 0 8 8 11 19 8 10 -2 21 1 24 9 6 18 117 15 128 -3z m-931 -1770 c0
-10 -5 -21 -11 -25 -18 -11 -31 11 -23 40 5 21 9 24 20 15 8 -6 14 -20 14 -30z"/>
<path d="M1110 1863 c0 -6 15 -14 33 -18 32 -7 32 -7 -20 -19 -46 -12 -89 -33
-80 -42 1 -2 19 1 40 5 20 5 37 5 37 1 0 -12 88 -6 102 8 10 10 7 17 -13 37
-26 26 -99 46 -99 28z"/>
<path d="M1150 1760 l-25 -8 27 -1 c15 -1 30 4 33 9 7 11 0 11 -35 0z"/>
<path d="M1425 1760 l-50 -7 45 -1 c25 0 54 3 65 8 23 10 12 10 -60 0z"/>
<path d="M1330 1701 c0 -5 7 -16 15 -25 11 -11 12 -17 3 -22 -6 -4 -14 -2 -16
4 -4 14 -32 4 -32 -13 0 -7 -7 -15 -15 -19 -23 -8 -18 -35 8 -45 29 -11 78 -6
87 10 8 12 -5 70 -21 102 -10 18 -29 23 -29 8z"/>
<path d="M1210 1624 c0 -11 5 -14 16 -10 9 3 20 6 25 6 6 0 7 5 4 10 -10 16
-45 12 -45 -6z"/>
<path d="M1109 1583 c-13 -16 -12 -17 4 -4 9 7 17 15 17 17 0 8 -8 3 -21 -13z"/>
<path d="M1343 1552 c-35 -2 -63 -7 -63 -12 0 -13 -73 -22 -101 -11 -14 5 -31
6 -38 2 -15 -10 59 -21 143 -21 56 -1 59 -2 42 -15 -11 -8 -28 -15 -38 -15
-10 0 -18 -4 -18 -10 0 -18 45 -10 82 15 20 14 41 25 46 25 5 0 15 6 21 14 18
22 -7 31 -76 28z"/>
<path d="M1297 1124 c-8 -8 1 -24 14 -24 5 0 9 7 9 15 0 15 -12 20 -23 9z"/>
</g>
</svg>
